<?xml version="1.0" encoding="UTF-8" standalone="no"?><!DOCTYPE svg PUBLIC "-//W3C//DTD SVG 1.1//EN" "http://www.w3.org/Graphics/SVG/1.1/DTD/svg11.dtd"><svg width="100%" height="100%" viewBox="0 0 28 27" version="1.1" xmlns="http://www.w3.org/2000/svg" xmlns:xlink="http://www.w3.org/1999/xlink" xml:space="preserve" xmlns:serif="http://www.serif.com/" style="fill-rule:evenodd;clip-rule:evenodd;stroke-linejoin:round;stroke-miterlimit:2;"><path d="M12.079,1.202c0.335,-0.732 1.067,-1.202 1.872,-1.202c0.806,-0 1.538,0.47 1.873,1.202l3.029,6.615l7.227,0.836c0.8,0.093 1.473,0.644 1.722,1.41c0.249,0.766 0.028,1.607 -0.565,2.153l-5.355,4.924l1.438,7.132c0.159,0.79 -0.157,1.6 -0.808,2.073c-0.652,0.474 -1.52,0.524 -2.222,0.128l-6.339,-3.571l-6.338,3.571c-0.702,0.396 -1.57,0.346 -2.222,-0.128c-0.651,-0.473 -0.967,-1.283 -0.808,-2.073l1.438,-7.132l-5.355,-4.924c-0.593,-0.546 -0.814,-1.387 -0.565,-2.153c0.249,-0.766 0.922,-1.317 1.722,-1.41l7.227,-0.836l3.029,-6.615Zm1.722,0.789c0.027,-0.059 0.086,-0.096 0.15,-0.096c0.065,-0 0.124,0.037 0.151,0.096c-0,-0 3.028,6.615 3.028,6.615c0.276,0.603 0.847,1.017 1.505,1.093l7.227,0.837c0.064,0.007 0.118,0.051 0.138,0.113c0.02,0.061 0.002,0.128 -0.045,0.172c-0,-0 -5.355,4.925 -5.355,4.925c-0.488,0.448 -0.706,1.119 -0.575,1.769l1.438,7.131c0.012,0.064 -0.013,0.129 -0.065,0.167c-0.052,0.038 -0.122,0.042 -0.178,0.01c-0,-0 -6.338,-3.572 -6.338,-3.572c-0.578,-0.325 -1.283,-0.325 -1.861,0l-6.338,3.572c-0.056,0.032 -0.126,0.028 -0.178,-0.01c-0.052,-0.038 -0.078,-0.103 -0.065,-0.167c0,0 1.438,-7.131 1.438,-7.131c0.131,-0.65 -0.087,-1.321 -0.575,-1.769l-5.355,-4.925c-0.047,-0.044 -0.065,-0.111 -0.045,-0.172c0.02,-0.062 0.074,-0.106 0.138,-0.113c-0,-0 7.227,-0.837 7.227,-0.837c0.658,-0.076 1.229,-0.49 1.505,-1.093c-0,-0 3.028,-6.615 3.028,-6.615Z" style="fill:#fff;"/></svg>