<?xml version="1.0" encoding="UTF-8" standalone="no"?><!DOCTYPE svg PUBLIC "-//W3C//DTD SVG 1.1//EN" "http://www.w3.org/Graphics/SVG/1.1/DTD/svg11.dtd"><svg width="100%" height="100%" viewBox="0 0 29 32" version="1.1" xmlns="http://www.w3.org/2000/svg" xmlns:xlink="http://www.w3.org/1999/xlink" xml:space="preserve" xmlns:serif="http://www.serif.com/" style="fill-rule:evenodd;clip-rule:evenodd;stroke-linecap:round;stroke-linejoin:round;stroke-miterlimit:1.5;"><g id="web-apps-menu-btn" serif:id="web apps menu btn"><path d="M27.199,17.889l0,-4.623c0,-1.638 -1.33,-2.969 -2.969,-2.969l-20.082,0c-1.638,0 -2.969,1.331 -2.969,2.969l0,13.855c0,1.639 1.331,2.969 2.969,2.969l10.781,0" style="fill:none;stroke:#fff;stroke-width:2.36px;"/><path d="M4.739,10.297c-0.105,-0.502 -0.161,-1.023 -0.161,-1.556c0,-4.174 3.388,-7.562 7.562,-7.562c4.173,0 7.561,3.388 7.561,7.562c0,0.533 -0.055,1.054 -0.161,1.556" style="fill:none;stroke:#fff;stroke-width:2.36px;"/><path d="M9.346,10.297c-0.042,-0.311 -0.065,-0.629 -0.065,-0.952c0,-3.84 3.118,-6.958 6.958,-6.958c3.84,0 6.957,3.118 6.957,6.958c0,0.323 -0.022,0.641 -0.065,0.952" style="fill:none;stroke:#fff;stroke-width:2.36px;"/><g><path d="M19.114,30.306l8.394,0" style="fill:none;stroke:#fff;stroke-width:2.12px;"/><path d="M19.058,24.179l4.218,4.586l4.299,-4.586l-4.299,4.586l0,-9.085" style="fill:none;stroke:#fff;stroke-width:2.12px;"/></g></g></svg>