<?xml version="1.0" encoding="UTF-8" standalone="no"?><!DOCTYPE svg PUBLIC "-//W3C//DTD SVG 1.1//EN" "http://www.w3.org/Graphics/SVG/1.1/DTD/svg11.dtd"><svg width="100%" height="100%" viewBox="0 0 242 387" version="1.1" xmlns="http://www.w3.org/2000/svg" xmlns:xlink="http://www.w3.org/1999/xlink" xml:space="preserve" xmlns:serif="http://www.serif.com/" style="fill-rule:evenodd;clip-rule:evenodd;stroke-linejoin:round;stroke-miterlimit:2;"><g><path d="M168.324,15.908c-0,-8.78 -7.128,-15.908 -15.908,-15.908l-21.21,0c-8.779,0 -15.907,7.128 -15.907,15.908l-0,21.21c-0,8.779 7.128,15.907 15.907,15.907l21.21,0c8.78,0 15.908,-7.128 15.908,-15.907l-0,-21.21Z" style="fill:#ff8d3f;fill-opacity:0.9;"/><path d="M131.206,140.438c0,-8.78 -7.128,-15.907 -15.907,-15.907l-21.21,-0c-8.78,-0 -15.908,7.127 -15.908,15.907l-0,21.21c-0,8.78 7.128,15.908 15.908,15.908l21.21,-0c8.779,-0 15.907,-7.128 15.907,-15.908l0,-21.21Z" style="fill:#ffe33b;fill-opacity:0.9;"/><path d="M71.38,183.537c0,-8.78 -7.128,-15.908 -15.907,-15.908l-21.211,0c-8.779,0 -15.907,7.128 -15.907,15.908l-0,21.21c-0,8.779 7.128,15.907 15.907,15.907l21.211,0c8.779,0 15.907,-7.128 15.907,-15.907l0,-21.21Z" style="fill:#ff4572;fill-opacity:0.9;"/><path d="M226.751,177.556c0,-8.78 -7.128,-15.908 -15.907,-15.908l-21.211,0c-8.779,0 -15.907,7.128 -15.907,15.908l-0,21.21c-0,8.779 7.128,15.907 15.907,15.907l21.211,0c8.779,0 15.907,-7.128 15.907,-15.907l0,-21.21Z" style="fill:#0744a1;fill-opacity:0.9;"/><path d="M85.656,79.946c0,-8.78 -7.128,-15.908 -15.907,-15.908l-21.211,0c-8.779,0 -15.907,7.128 -15.907,15.908l-0,21.21c-0,8.779 7.128,15.907 15.907,15.907l21.211,0c8.779,0 15.907,-7.128 15.907,-15.907l0,-21.21Z" style="fill:#277dff;fill-opacity:0.9;"/><path d="M200.239,90.551c-0,-8.78 -7.128,-15.908 -15.908,-15.908l-21.21,0c-8.78,0 -15.908,7.128 -15.908,15.908l0,21.21c0,8.779 7.128,15.907 15.908,15.907l21.21,0c8.78,0 15.908,-7.128 15.908,-15.907l-0,-21.21Z" style="fill:#aecf5b;fill-opacity:0.9;"/><path d="M186.296,200.505l0,-1.834c0,-36.225 -29.465,-65.7 -65.699,-65.7c-36.234,-0 -65.7,29.475 -65.7,65.7l-0,1.834l-54.897,0l14.554,137.884c2.907,27.576 26.165,48.513 53.888,48.513l104.3,0c27.733,0 50.99,-20.937 53.897,-48.513l14.563,-137.884l-54.906,0Zm-118.073,95.138c0.18,3.757 0.79,7.554 1.844,11.334c7.542,27.488 36.203,43.747 63.692,36.036c7.978,-2.224 14.994,-6.178 20.746,-11.349l2.387,-2.289l-2.35,0.062l2.35,-0.062l0.227,-0.008c19.245,-0.662 25.33,-9.029 27.258,-14.01c3.776,-10.01 -2.201,-20.848 -13.33,-30.578c0.825,4.718 0.938,9.429 0.357,14.014c0.502,-4.491 0.41,-9.103 -0.327,-13.734l-0.048,-0.296c-0.152,-0.936 -0.332,-1.872 -0.539,-2.808l-0.695,-2.801c-2.357,-8.59 -6.776,-16.067 -12.578,-22.058l-1.781,-1.752c-0.62,-0.554 -1.24,-1.107 -1.86,-1.661l-1.935,-1.567l-1.749,-1.282c-2.425,-1.712 -4.996,-3.214 -7.679,-4.489c-1.956,-0.946 -3.979,-1.759 -6.05,-2.444c-5.148,-1.708 -10.593,-2.623 -16.144,-2.641l-0.477,0c-4.446,0.026 -8.958,0.628 -13.439,1.858c-8.076,2.295 -15.161,6.315 -20.939,11.564l-0.136,0.125l-0.425,0.402l-1.72,1.675l-0.569,0.601l-1.458,1.603l-0.595,0.705l-1.311,1.63l-0.558,0.74l-1.227,1.73l-0.479,0.716l-1.185,1.904l-0.366,0.618l-1.185,2.189l-0.213,0.41l-1.245,2.674l-0.187,0.288l-0.067,0.161l-0.068,0.63c-0.014,-0.239 0.01,-0.45 0.068,-0.63c-2.953,6.957 -4.389,14.598 -4.034,22.417l0.019,0.373c-0.428,-7.949 1.013,-15.721 4.015,-22.79l0.007,-0.069l0.06,-0.092c3.268,-7.67 8.377,-14.504 14.939,-19.835l-0.584,-0.018c-21.287,-0 -27.824,8.716 -29.835,14.079c-3.524,9.261 1.447,19.283 11.167,28.507l0.231,0.218Zm-0,-0l3.997,3.521c1.347,1.109 2.759,2.203 4.231,3.276l1.473,1.036l3.068,2.111l1.845,1.176l3.005,1.854l2.027,1.178l3.105,1.725l2.109,1.119l3.305,1.656l2.079,1.007l3.72,1.677l1.805,0.798l5.631,2.273l6.724,2.373c-2.24,-0.727 -4.482,-1.523 -6.724,-2.373c-1.892,-0.72 -3.773,-1.477 -5.631,-2.273l-0.346,-0.14l-1.459,-0.658l-2.94,-1.299l-0.78,-0.378l-0.667,-0.3l-1.412,-0.707l-2.154,-1.045l-1.151,-0.611l-0.95,-0.475l-1.159,-0.644l-1.591,-0.845l-1.514,-0.88l-1.174,-0.651l-0.853,-0.527l-1.117,-0.649l-1.888,-1.205l-1.301,-0.802l-0.544,-0.374l-0.696,-0.444l-2.372,-1.667l-1.219,-0.839l-0.254,-0.197c-1.462,-1.061 -2.863,-2.148 -4.201,-3.249l-0.03,-0.027c-1.406,-1.158 -2.741,-2.333 -3.997,-3.521Zm89.405,-95.138l-74.045,0l0,-1.834c0,-20.424 16.599,-37.023 37.023,-37.023c20.423,0 37.022,16.599 37.022,37.023l0,1.834Z" style="fill:#fff;fill-opacity:0.6;"/><path d="M72.25,299.191c5.588,4.603 12.283,8.942 19.582,12.806c5.647,3.003 11.656,5.717 17.791,8.053c2.242,0.85 4.484,1.646 6.724,2.373c-0,-0 0.729,0.257 0.729,0.257l0.472,0.142c2.137,0.694 4.266,1.336 6.381,1.918c0,0 0.535,0.161 0.535,0.161l0.738,0.183c2.156,0.586 4.295,1.114 6.408,1.588c0,-0 0.111,0.027 0.111,0.027l0.372,0.072l3.67,0.752l2.161,0.37l0.859,0.165l0.583,0.081c1.555,0.254 3.089,0.465 4.599,0.641c0,-0 0.282,0.039 0.282,0.039l4.248,0.373l0.881,0.08l0.136,0.009c1.717,0.104 3.396,0.156 5.03,0.156l2.35,-0.062c-6.154,6.295 -14.015,11.096 -23.133,13.638c-27.489,7.711 -56.15,-8.548 -63.692,-36.036c-1.054,-3.78 -1.664,-7.577 -1.844,-11.334l4.027,3.548Z" style="fill:#fff;"/><path d="M132.093,326.771l-0.483,-0.099l-6.408,-1.588l-1.273,-0.344l-6.381,-1.918l-1.201,-0.399l-6.724,-2.373c-16.068,-6.12 -31.273,-14.828 -41.4,-24.407c-0.419,-7.95 1.015,-15.723 4.015,-22.79c-0.058,0.18 -0.082,0.391 -0.068,0.63l-0.003,0.025l0.042,0.233l0.069,0.458l0.028,0.083l0.012,0.065l0.112,0.302l0.152,0.447l0.069,0.143l0.044,0.118l0.172,0.331l0.212,0.44l0.083,0.128c0.357,0.644 0.812,1.35 1.375,2.106l0.127,0.195l0.168,0.199c0.588,0.774 1.278,1.598 2.073,2.463l0.153,0.182l0.255,0.251c0.839,0.894 1.787,1.829 2.843,2.798l0.129,0.127l0.295,0.247c1.128,1.016 2.376,2.064 3.743,3.138l2.57,1.924l2.023,1.399l0.421,0.305l0.301,0.195l0.105,0.073l0.486,0.31l1.93,1.252l0.5,0.301l0.204,0.13l0.582,0.344l1.766,1.064l0.357,0.188l0.687,0.405c4.446,2.42 8.901,4.576 13.519,6.65l4.033,1.62c11.682,4.723 23.998,7.959 36.5,8.749c4.785,0.303 13.573,1.026 17.917,-2.493c0.147,-0.33 0.282,-0.635 0.794,-0.745l0.106,-0.142l0.028,-0.268l0.654,-2.13c0.206,-0.809 0.412,-1.618 0.618,-2.426l0.211,-1.038l0.126,-0.527l0.113,-0.645l0.051,-0.251l0.05,-0.331l0.384,-2.753l0.045,-0.329c0.581,-4.585 0.468,-9.296 -0.357,-14.014c11.129,9.73 17.106,20.568 13.33,30.578c-1.928,4.981 -8.013,13.348 -27.258,14.01l-0.227,0.008l-2.35,0.062l-5.116,-0.163l-0.931,-0.082l-4.53,-0.412l-4.599,-0.641c0,0 -1.442,-0.246 -1.442,-0.246l-5.831,-1.122Zm-44.849,-73.914c-6.562,5.331 -11.671,12.165 -14.939,19.835l-0.06,0.092l-0.007,0.069c-3.002,7.069 -4.443,14.841 -4.015,22.79c-9.872,-9.284 -14.95,-19.391 -11.398,-28.725c2.011,-5.363 8.548,-14.079 29.835,-14.079l0.584,0.018Z" style="fill:#fff;fill-opacity:0.2;"/><path d="M167.116,310.991l-0.201,0.112l-2.116,0.74l0.004,-0.002c-2.329,0.668 -5.685,1.17 -10.261,1.17c-10.894,0 -25.141,-3.017 -39.053,-8.213l-1.682,-0.676l-5.609,-2.359c-2.194,-1.042 -4.388,-2.085 -6.582,-3.127l-6.048,-3.189l-2.123,-1.252l-0.786,-0.474l-2.43,-1.553l-0.591,-0.383l0.105,0.073l-0.827,-0.573l-4.386,-3.168c-7.242,-5.602 -11.133,-10.597 -12.1,-13.468l-0.124,-0.367l0.012,0.065l-0.109,-0.606l-0.039,-0.258l0.068,-0.63l0.067,-0.161l0.187,-0.288l1.245,-2.674l0.213,-0.41l1.185,-2.189l0.366,-0.618l1.185,-1.904l0.479,-0.716l1.227,-1.73l0.558,-0.74l1.311,-1.63l0.595,-0.705l1.458,-1.603l0.569,-0.601l1.72,-1.675l0.425,-0.402l0.136,-0.125c5.778,-5.249 12.863,-9.269 20.939,-11.564c10.242,-2.811 20.647,-2.34 30.06,0.783c2.071,0.685 4.094,1.498 6.05,2.444c2.683,1.275 5.254,2.777 7.679,4.489l1.749,1.282l1.935,1.567c0.62,0.554 1.24,1.107 1.86,1.661l1.781,1.752c5.802,5.991 10.221,13.468 12.578,22.058l0.695,2.801c0.207,0.936 0.387,1.872 0.539,2.808l0.048,0.296c0.739,4.648 0.829,9.277 0.323,13.783l0.002,-0.024l-0.043,0.304l-0.668,4.232l-0.586,2.564l-0.043,0.167l-0.173,0.56c-0.215,0.767 -0.452,1.529 -0.707,2.285l-0.03,0.293l-0.079,0.257l-0.055,0.153l-0.739,0.694l-0.16,0.109l-1.003,0.555l-0.309,0.15l0.108,-0.038l1.204,-0.667l-0.354,0.242l-0.649,0.313Z" style="fill:#fff;"/></g></svg>